<svg width="25" height="25" viewBox="0 0 25 25" fill="none" xmlns="http://www.w3.org/2000/svg">
<path d="M24.2817 11.6677C24.2593 11.6677 24.2385 11.6538 24.2301 11.6316L21.9232 5.44788C21.9126 5.41931 21.9266 5.3874 21.9548 5.37608C21.9817 5.36527 22.0139 5.3784 22.0259 5.40696L22.5485 6.69909C22.5487 6.69961 22.549 6.70012 22.549 6.70089L24.3333 11.5925C24.3439 11.6213 24.3295 11.6533 24.301 11.6641C24.2947 11.6666 24.2881 11.6677 24.2817 11.6677Z" stroke="#C6A664" stroke-width="0.5"/>
<path d="M22.4976 6.77607C22.4821 6.77607 22.4666 6.76938 22.4559 6.75677L17.961 1.4871C17.9417 1.46446 17.9435 1.43023 17.9651 1.4099C17.9867 1.38931 18.0202 1.38983 18.0416 1.41093L22.0138 5.38846C22.0189 5.39361 22.0232 5.40004 22.026 5.40699L22.5486 6.69912C22.5588 6.72434 22.5494 6.75342 22.5265 6.76783C22.5174 6.77324 22.5075 6.77607 22.4976 6.77607ZM18.9608 2.48843L22.3187 6.42505L21.9282 5.45974L18.9608 2.48843Z" stroke="#C6A664" stroke-width="0.5"/>
<path d="M6.05729 2.14462C6.0329 2.14462 6.0108 2.12816 6.0042 2.10371C5.99632 2.07488 6.01207 2.04529 6.03976 2.03577L11.3253 0.25288C11.338 0.248764 11.3512 0.249019 11.3629 0.25391L12.3573 0.646876C12.3799 0.655883 12.3941 0.678785 12.3921 0.703235C12.3903 0.727682 12.3728 0.748271 12.3489 0.753417L6.06898 2.14334C6.06517 2.14411 6.06111 2.14462 6.05729 2.14462ZM11.3413 0.36534L7.05728 1.81034L12.1474 0.683677L11.3413 0.36534Z" stroke="#C6A664" stroke-width="0.5"/>
<path d="M18.0026 1.50634C18.0003 1.50634 17.9978 1.50608 17.9955 1.50582L12.3299 0.754118L11.3225 0.357806C11.2961 0.347513 11.2819 0.318434 11.2895 0.290896C11.2969 0.263361 11.3241 0.246117 11.3518 0.25075L18.0117 1.39542C18.0415 1.40057 18.0615 1.42862 18.0572 1.45873C18.0529 1.48652 18.0295 1.50634 18.0026 1.50634ZM11.8645 0.452252L12.3571 0.646805L15.1424 1.01558L11.8645 0.452252Z" stroke="#C6A664" stroke-width="0.5"/>
<path d="M13.3307 24.2505C13.3094 24.2505 13.2891 24.2376 13.2802 24.2168C13.2687 24.1903 13.2794 24.1591 13.3046 24.1455L19.5845 20.7274C19.6068 20.7159 19.6337 20.72 19.6508 20.7382C19.6678 20.7568 19.6706 20.7843 19.6576 20.8059L18.6632 22.4408C18.6564 22.4519 18.6459 22.4604 18.6338 22.4645L13.3483 24.2477C13.3424 24.2495 13.3366 24.2505 13.3307 24.2505ZM19.4562 20.924L13.9214 23.9365L18.5799 22.3649L19.4562 20.924Z" stroke="#C6A664" stroke-width="0.5"/>
<path d="M18.6162 22.4674C18.604 22.4674 18.592 22.4633 18.5819 22.4553C18.56 22.4378 18.5547 22.4064 18.5692 22.3822L19.5636 20.7473C19.5669 20.7419 19.5712 20.7373 19.576 20.7331L22.9863 17.9433C23.0092 17.9245 23.0422 17.9276 23.062 17.9494C23.0816 17.9716 23.0806 18.0055 23.0597 18.0264L18.655 22.4512C18.6444 22.462 18.6302 22.4674 18.6162 22.4674ZM19.6525 20.814L18.9056 22.0423L22.2145 18.7181L19.6525 20.814Z" stroke="#C6A664" stroke-width="0.5"/>
<path d="M23.1122 14.158C23.1089 14.158 23.1056 14.1578 23.1023 14.157C23.0779 14.1526 23.0594 14.132 23.0573 14.1068L22.4425 6.72487C22.4402 6.69707 22.4585 6.67185 22.4854 6.66568C22.5141 6.66027 22.5396 6.67468 22.549 6.70093L24.3332 11.5926C24.3386 11.6067 24.3378 11.6222 24.3314 11.6358L23.162 14.1261C23.1526 14.1459 23.1333 14.158 23.1122 14.158ZM22.5866 7.12556L23.1501 13.8917L24.2219 11.609L22.5866 7.12556Z" stroke="#C6A664" stroke-width="0.5"/>
<path d="M23.0211 18.0427C23.0191 18.0427 23.0171 18.0427 23.015 18.0424C22.9866 18.0391 22.9652 18.0144 22.966 17.9856L23.0572 14.1009C23.0575 14.093 23.0592 14.0852 23.0625 14.0783L24.232 11.588C24.2442 11.5622 24.2736 11.5504 24.299 11.5589C24.3255 11.5679 24.3412 11.5952 24.3359 11.623L23.0752 17.9979C23.0699 18.0242 23.047 18.0427 23.0211 18.0427ZM23.1672 14.1153L23.0912 17.3479L24.1403 12.0432L23.1672 14.1153Z" stroke="#C6A664" stroke-width="0.5"/>
<path d="M23.021 17.9867H23.0223M19.6108 20.8324C19.5983 20.8324 19.5859 20.828 19.5757 20.8195C19.5554 20.8028 19.5498 20.7737 19.562 20.7503L23.0635 14.0758C23.0757 14.0531 23.1018 14.0413 23.1262 14.048C23.1509 14.0547 23.1679 14.0776 23.1674 14.1033L23.0762 17.988C23.0757 18.0044 23.0683 18.0199 23.0556 18.0302L19.6453 20.8201C19.6354 20.8283 19.623 20.8324 19.6108 20.8324ZM23.0515 14.3365L19.7861 20.5614L22.9667 17.9594L23.0515 14.3365Z" stroke="#C6A664" stroke-width="0.5"/>
<path d="M0.391481 12.9443C0.38513 12.9443 0.378778 12.9432 0.37268 12.9409C0.347021 12.9314 0.33203 12.9044 0.337366 12.8774L1.59904 6.5024C1.60285 6.48335 1.61631 6.46765 1.63435 6.46096C1.65214 6.45401 1.67271 6.45788 1.6877 6.46997L3.20521 7.70909C3.22605 7.72607 3.23189 7.75567 3.21893 7.77934L0.439753 12.9152C0.429843 12.9335 0.411045 12.9443 0.391481 12.9443ZM1.68923 6.6146L0.516225 12.5415L3.10003 7.76673L1.68923 6.6146Z" stroke="#C6A664" stroke-width="0.5"/>
<path d="M3.17066 7.80837C3.15821 7.80837 3.14601 7.804 3.1361 7.79602L1.61859 6.5569C1.6064 6.54686 1.59903 6.53219 1.59801 6.51624C1.59725 6.50054 1.6031 6.48484 1.61427 6.47378L6.01818 2.04898C6.03723 2.02942 6.06798 2.02736 6.08957 2.04357C6.11142 2.05978 6.11853 2.0899 6.10609 2.11434L3.21969 7.77826C3.21207 7.79293 3.19835 7.80374 3.18209 7.80708C3.17828 7.80785 3.17447 7.80837 3.17066 7.80837ZM1.73572 6.50904L3.15262 7.66606L5.8477 2.37735L1.73572 6.50904Z" stroke="#C6A664" stroke-width="0.5"/>
<path d="M6.67202 23.1054C6.65754 23.1054 6.64356 23.0997 6.6334 23.0891L2.66013 19.1119C2.64082 19.0928 2.63828 19.0627 2.65353 19.0403C2.66902 19.0179 2.69748 19.0107 2.72212 19.0215L7.69004 21.3639C7.70427 21.3706 7.71494 21.3832 7.71951 21.3986C7.72409 21.4138 7.7218 21.4303 7.71367 21.4439L6.71902 23.0789C6.71013 23.0933 6.69539 23.1028 6.67862 23.1048C6.67634 23.1051 6.6743 23.1054 6.67202 23.1054ZM2.96323 19.2586L6.66135 22.9605L7.58715 21.4388L2.96323 19.2586Z" stroke="#C6A664" stroke-width="0.5"/>
<path d="M13.3309 24.2506C13.3279 24.2506 13.3248 24.2503 13.3218 24.2498L6.66284 23.1046C6.6448 23.1015 6.6293 23.0894 6.62168 23.0724C6.61432 23.0557 6.61533 23.0362 6.62499 23.0202L7.61964 21.3853C7.63437 21.3608 7.66486 21.3516 7.69078 21.3644L13.3551 24.1445C13.3797 24.1566 13.3919 24.1852 13.3835 24.2117C13.3759 24.2351 13.3546 24.2506 13.3309 24.2506ZM6.76167 23.0084L12.9587 24.074L7.68747 21.4869L6.76167 23.0084Z" stroke="#C6A664" stroke-width="0.5"/>
<path d="M22.4977 6.77609C22.4895 6.77609 22.4814 6.77428 22.4735 6.77042L16.8092 3.99109C16.782 3.97771 16.7706 3.94451 16.7836 3.91698L17.953 1.42665C17.9611 1.40966 17.9769 1.39782 17.9954 1.39525C18.014 1.39371 18.0325 1.39988 18.0445 1.41404L22.5393 6.6837C22.5564 6.70377 22.5574 6.73311 22.5414 6.75421C22.5307 6.76837 22.5144 6.77609 22.4977 6.77609ZM16.9065 3.91492L22.2815 6.5522L18.0163 1.55172L16.9065 3.91492Z" stroke="#C6A664" stroke-width="0.5"/>
<path d="M16.8329 3.99668C16.8215 3.99668 16.8103 3.99308 16.8009 3.98639L12.3048 0.744354C12.2842 0.729428 12.2763 0.702149 12.2855 0.678474C12.2946 0.654799 12.3203 0.641672 12.3439 0.643475L18.0095 1.39518C18.027 1.3975 18.0423 1.40805 18.0509 1.42375C18.0593 1.43944 18.0598 1.45823 18.0522 1.47444L16.8827 3.96478C16.8756 3.9797 16.8626 3.99077 16.8469 3.99489C16.8423 3.99617 16.8375 3.99668 16.8329 3.99668ZM12.5489 0.783209L16.8113 3.85669L17.92 1.4958L12.5489 0.783209Z" stroke="#C6A664" stroke-width="0.5"/>
<path d="M3.78561 15.1903C3.77519 15.1903 3.76452 15.1872 3.75537 15.1813L0.361363 12.9354C0.337228 12.9194 0.329352 12.8873 0.343325 12.8618L3.12251 7.72596C3.13419 7.70434 3.15935 7.69328 3.18221 7.69817C3.20609 7.70331 3.22362 7.72338 3.22566 7.74809L3.84048 15.1298C3.84226 15.1509 3.83185 15.1715 3.81381 15.1823C3.80517 15.1877 3.79526 15.1903 3.78561 15.1903ZM0.464512 12.87L3.72108 15.025L3.13114 7.94187L0.464512 12.87Z" stroke="#C6A664" stroke-width="0.5"/>
<path d="M2.69867 19.1282C2.67581 19.1282 2.65523 19.1138 2.6471 19.0922L0.339964 12.9084C0.331579 12.8858 0.33844 12.8603 0.356986 12.8451C0.375788 12.8297 0.401449 12.8289 0.421772 12.8418L3.81578 15.0876C3.83585 15.101 3.845 15.126 3.83865 15.1494L2.75177 19.0873C2.74542 19.1107 2.72484 19.1272 2.70121 19.1282H2.69867ZM0.502818 13.0289L2.6908 18.8935L3.72153 15.1589L0.502818 13.0289Z" stroke="#C6A664" stroke-width="0.5"/>
<path d="M7.66661 21.4705C7.65874 21.4705 7.65086 21.4687 7.64324 21.4653L2.67532 19.123C2.65093 19.1114 2.63822 19.0836 2.64559 19.0573L3.73247 15.1194C3.73831 15.0981 3.7561 15.0824 3.77769 15.079C3.79903 15.0775 3.82088 15.0862 3.83231 15.1048L7.71336 21.385C7.72632 21.4059 7.72403 21.4331 7.70803 21.4517C7.6971 21.4638 7.68211 21.4705 7.66661 21.4705ZM2.76449 19.0416L7.52104 21.2844L3.80513 15.271L2.76449 19.0416Z" stroke="#C6A664" stroke-width="0.5"/>
<path d="M13.3307 24.2507C13.319 24.2507 13.3071 24.2468 13.2974 24.2393C13.2802 24.2262 13.2723 24.2041 13.2769 24.1827L13.9753 21.0076C13.9809 20.9829 14.002 20.9649 14.0269 20.9638L19.6083 20.7209C19.6299 20.7186 19.6569 20.7369 19.6637 20.7621C19.6706 20.787 19.6594 20.8135 19.6368 20.8259L13.3569 24.244C13.3485 24.2483 13.3396 24.2507 13.3307 24.2507ZM14.0739 21.0737L13.4108 24.088L19.3726 20.8429L14.0739 21.0737Z" stroke="#C6A664" stroke-width="0.5"/>
<path d="M13.3308 24.2504C13.3227 24.2504 13.3143 24.2486 13.3067 24.2448L7.6424 21.4647C7.62004 21.4536 7.60759 21.4286 7.61242 21.4037C7.61725 21.3787 7.63808 21.3605 7.66323 21.3586L14.026 20.9636C14.0435 20.9636 14.0603 20.9701 14.0712 20.9832C14.0824 20.9966 14.0869 21.0146 14.0831 21.0316L13.3847 24.2067C13.3809 24.2234 13.37 24.2373 13.3547 24.2448C13.3474 24.2486 13.339 24.2504 13.3308 24.2504ZM7.87995 21.4572L13.2922 24.1135L13.9596 21.0797L7.87995 21.4572Z" stroke="#C6A664" stroke-width="0.5"/>
<path d="M9.45072 4.39105C9.43014 4.39105 9.41109 4.37947 9.40169 4.36068C9.39178 4.34112 9.39407 4.31745 9.40779 4.30021L12.2942 0.663915C12.3127 0.640754 12.3458 0.636379 12.3691 0.653363L16.8653 3.8954C16.8843 3.9093 16.8927 3.93375 16.8861 3.95665C16.8797 3.9793 16.8597 3.99551 16.836 3.9968L9.45352 4.39104L9.45072 4.39105ZM12.3475 0.77483L9.57089 4.27293L16.6727 3.8936L12.3475 0.77483Z" stroke="#C6A664" stroke-width="0.5"/>
<path d="M3.17077 7.8085C3.15654 7.8085 3.14257 7.80309 3.13215 7.79254C3.11488 7.7753 3.11081 7.74879 3.12174 7.72692L6.00813 2.063C6.01524 2.04911 6.02795 2.03881 6.04319 2.03469C6.05844 2.03032 6.07444 2.03341 6.0874 2.0419L9.4809 4.28827C9.49716 4.29908 9.50656 4.31786 9.5058 4.33742C9.50478 4.35724 9.49386 4.37499 9.47684 4.38425L3.19694 7.8018C3.18855 7.80618 3.17966 7.8085 3.17077 7.8085ZM6.07825 2.16928L3.30136 7.61832L9.34295 4.33047L6.07825 2.16928Z" stroke="#C6A664" stroke-width="0.5"/>
<path d="M9.45072 4.39089C9.4403 4.39089 9.42989 4.38781 9.42049 4.38189L6.02699 2.13552C6.00844 2.12316 5.99904 2.10078 6.0031 2.07864C6.00692 2.05651 6.02368 2.03901 6.04553 2.03412L12.3254 0.644201C12.3483 0.639568 12.3717 0.649348 12.3839 0.669421C12.3963 0.689493 12.3948 0.715229 12.3801 0.733757L9.49366 4.37005C9.48273 4.38369 9.46698 4.39089 9.45072 4.39089ZM6.19746 2.11467L9.43903 4.26067L12.1964 0.787024L6.19746 2.11467Z" stroke="#C6A664" stroke-width="0.5"/>
<path d="M23.1121 14.1581C23.0946 14.1581 23.0778 14.1496 23.0671 14.1347L19.9404 9.69674C19.9256 9.6759 19.9269 9.64733 19.9437 9.62777L22.4556 6.68374C22.4701 6.66701 22.4929 6.66032 22.5143 6.66727C22.5354 6.67422 22.5504 6.69326 22.5521 6.71565L23.167 14.0976C23.169 14.1226 23.1545 14.146 23.1311 14.1547C23.1248 14.1571 23.1184 14.1581 23.1121 14.1581ZM20.0555 9.66766L23.0402 13.9043L22.4533 6.85719L20.0555 9.66766Z" stroke="#C6A664" stroke-width="0.5"/>
<path d="M19.9858 9.72004C19.984 9.72004 19.982 9.72004 19.9802 9.71978C19.9624 9.71798 19.9464 9.70743 19.9378 9.69147L16.7854 3.96811C16.7734 3.94675 16.7767 3.92024 16.7932 3.90249C16.8098 3.88499 16.8354 3.87984 16.8575 3.89065L22.5218 6.66998C22.5371 6.67745 22.5482 6.69186 22.5516 6.70884C22.5551 6.72583 22.5505 6.74359 22.5394 6.75671L20.0275 9.70074C20.017 9.71309 20.0018 9.72004 19.9858 9.72004ZM16.9668 4.06822L19.9954 9.56743L22.409 6.73869L16.9668 4.06822Z" stroke="#C6A664" stroke-width="0.5"/>
<path d="M19.6107 20.8325C19.6094 20.8325 19.6081 20.8325 19.6068 20.8323C19.5853 20.831 19.5665 20.8166 19.5591 20.796L17.7751 15.9038C17.7697 15.8897 17.7705 15.874 17.7768 15.8603C17.7834 15.8467 17.7951 15.8364 17.8091 15.8315L23.0946 14.0491C23.1165 14.0422 23.1398 14.0486 23.1543 14.0661C23.1688 14.0836 23.1713 14.1081 23.1609 14.1284L19.6594 20.8029C19.6498 20.8212 19.631 20.8325 19.6107 20.8325ZM17.898 15.9193L19.6198 20.6405L22.9988 14.1992L17.898 15.9193Z" stroke="#C6A664" stroke-width="0.5"/>
<path d="M14.0292 21.0753C14.0089 21.0753 13.9901 21.064 13.9804 21.0455C13.9705 21.0264 13.9723 21.0033 13.985 20.986L17.7825 15.851C17.7947 15.8347 17.8142 15.8265 17.8345 15.8291C17.8546 15.8322 17.8714 15.8458 17.8782 15.8651L19.6623 20.7572C19.6686 20.774 19.6663 20.7925 19.6567 20.8074C19.6468 20.8224 19.6308 20.8316 19.613 20.8324L14.0315 21.0753H14.0292ZM17.8102 16L14.143 20.9587L19.5327 20.724L17.8102 16Z" stroke="#C6A664" stroke-width="0.5"/>
<path d="M17.8267 15.9404C17.8122 15.9404 17.798 15.9345 17.7873 15.9236C17.7726 15.9085 17.7677 15.8861 17.7746 15.866L19.9333 9.6457C19.9402 9.62614 19.9572 9.61199 19.9778 9.6089C19.9974 9.6071 20.0185 9.61482 20.0304 9.6318L23.1571 14.0697C23.1673 14.0841 23.1701 14.1027 23.1645 14.1194C23.1592 14.1364 23.1462 14.1495 23.1297 14.1552L17.8442 15.9375C17.8384 15.9393 17.8325 15.9404 17.8267 15.9404ZM20.0022 9.78415L17.9158 15.7955L23.024 14.0731L20.0022 9.78415Z" stroke="#C6A664" stroke-width="0.5"/>
<path d="M3.78558 15.1901C3.7805 15.1901 3.77517 15.1893 3.77009 15.1878C3.74824 15.1813 3.73248 15.1618 3.73071 15.1389L3.11588 7.75717C3.1141 7.73633 3.12401 7.71626 3.14154 7.70519C3.15907 7.69387 3.18117 7.69361 3.19921 7.70468L7.45423 10.2874C7.46795 10.2956 7.47735 10.3093 7.48015 10.3247C7.4832 10.3404 7.47939 10.3566 7.46973 10.3692L3.82928 15.1682C3.81861 15.1824 3.80235 15.1901 3.78558 15.1901ZM3.23478 7.85651L3.82852 14.986L7.34473 10.351L3.23478 7.85651Z" stroke="#C6A664" stroke-width="0.5"/>
<path d="M7.42611 10.3912C7.4162 10.3912 7.40654 10.3887 7.39765 10.3833L3.14263 7.80053C3.1256 7.79024 3.11519 7.77146 3.11569 7.75139C3.1162 7.73131 3.12738 7.71304 3.14466 7.70352L9.42456 4.28597C9.44488 4.27542 9.46902 4.27799 9.48629 4.29266C9.50357 4.30733 9.51017 4.33152 9.50281 4.35313L7.47819 10.3534C7.47285 10.3694 7.46066 10.382 7.44516 10.3879C7.43881 10.3902 7.43246 10.3912 7.42611 10.3912ZM3.28236 7.75524L7.39587 10.252L9.35316 4.4517L3.28236 7.75524Z" stroke="#C6A664" stroke-width="0.5"/>
<path d="M13.8703 21.3125C13.8533 21.3125 13.837 21.3045 13.8266 21.2906L10.2426 16.5498C10.2301 16.5333 10.2276 16.5112 10.2362 16.4924C10.2448 16.4736 10.2629 16.4613 10.2835 16.46L17.665 16.0657C17.6807 16.0647 17.7064 16.0763 17.7163 16.0953C17.7265 16.1144 17.7247 16.1378 17.712 16.155L13.9145 21.2901C13.9041 21.304 13.8876 21.3125 13.8703 21.3125ZM10.3937 16.566L13.8698 21.1643L17.5529 16.1836L10.3937 16.566Z" stroke="#C6A664" stroke-width="0.5"/>
<path d="M7.66651 21.4706C7.64771 21.4706 7.63018 21.4608 7.62002 21.4446C7.60909 21.4273 7.60858 21.4057 7.61824 21.388L10.3969 16.2521C10.4058 16.2354 10.4223 16.2246 10.4411 16.2233C10.4594 16.2184 10.4777 16.23 10.4889 16.2449L14.0729 20.9857C14.0854 21.0022 14.0879 21.0241 14.0793 21.0429C14.0709 21.0617 14.0529 21.0743 14.0325 21.0756L7.66981 21.4706H7.66651ZM10.4528 16.3808L7.7628 21.3527L13.9225 20.9703L10.4528 16.3808Z" stroke="#C6A664" stroke-width="0.5"/>
<path d="M7.66677 21.4705C7.64771 21.4705 7.63018 21.4608 7.62002 21.4443L3.73897 15.164C3.72754 15.1455 3.72779 15.1216 3.73999 15.1033C3.75193 15.0853 3.77378 15.0758 3.79487 15.0794L10.4546 16.2238C10.4721 16.2269 10.4874 16.2382 10.495 16.2544C10.5029 16.2709 10.5023 16.2899 10.4937 16.3056L7.71504 21.4415C7.70564 21.459 7.68786 21.47 7.66829 21.4705H7.66677ZM3.89751 15.2104L7.66372 21.3043L10.3598 16.3208L3.89751 15.2104Z" stroke="#C6A664" stroke-width="0.5"/>
<path d="M10.4455 16.3347C10.4424 16.3347 10.4394 16.3344 10.4363 16.3339L3.77659 15.1895C3.75754 15.1862 3.74153 15.173 3.73442 15.1548C3.7273 15.1365 3.73035 15.1159 3.74204 15.1005L7.38249 10.3015C7.39392 10.2863 7.41298 10.2768 7.43101 10.2799C7.44982 10.2817 7.46658 10.293 7.47522 10.31L10.4945 16.2534C10.5039 16.2722 10.5024 16.2948 10.4899 16.3118C10.4795 16.3262 10.4627 16.3347 10.4455 16.3347ZM3.88533 15.0948L10.3461 16.2053L7.41704 10.4392L3.88533 15.0948Z" stroke="#C6A664" stroke-width="0.5"/>
<path d="M10.4454 16.3347C10.4248 16.3344 10.4058 16.3229 10.3964 16.3043L7.37708 10.3609C7.3687 10.3447 7.36895 10.3252 7.37759 10.309C7.38623 10.2927 7.40198 10.2819 7.42002 10.2799L13.9408 9.54876C13.9608 9.54721 13.9812 9.55597 13.9926 9.57295C14.004 9.5902 14.005 9.61233 13.9956 9.6306L10.4942 16.3051C10.4845 16.3234 10.4657 16.3347 10.4454 16.3347ZM7.51173 10.382L10.4461 16.1584L13.8493 9.67151L7.51173 10.382Z" stroke="#C6A664" stroke-width="0.5"/>
<path d="M10.4453 16.3345C10.4265 16.3345 10.409 16.3248 10.3988 16.3088C10.3882 16.2918 10.3874 16.2702 10.3966 16.2524L13.898 9.57793C13.9074 9.56043 13.9252 9.54911 13.9448 9.54834C13.9664 9.55091 13.9831 9.55761 13.9936 9.57459L17.8736 15.8548C17.884 15.8716 17.8848 15.8927 17.8756 15.9102C17.8667 15.9277 17.8492 15.9393 17.8296 15.9403L10.4481 16.3345H10.4453ZM13.9506 9.71561L10.5396 16.2177L17.7306 15.8337L13.9506 9.71561Z" stroke="#C6A664" stroke-width="0.5"/>
<path d="M17.8268 15.9403C17.808 15.9403 17.7902 15.9305 17.78 15.914L13.9 9.63378C13.8893 9.61654 13.8888 9.59466 13.8987 9.57691C13.9086 9.55889 13.9302 9.55426 13.9473 9.54834L19.9861 9.6083C20.0038 9.60856 20.0204 9.61731 20.0308 9.63198C20.0409 9.6469 20.0435 9.66569 20.0376 9.68267L17.8789 15.903C17.8718 15.9233 17.854 15.9375 17.8329 15.94C17.8308 15.94 17.8288 15.9403 17.8268 15.9403ZM14.0469 9.66106L17.8128 15.7565L19.9081 9.71922L14.0469 9.66106Z" stroke="#C6A664" stroke-width="0.5"/>
<path d="M19.9856 9.72006H19.985L13.9463 9.6601C13.9272 9.65984 13.9094 9.64955 13.8995 9.63308C13.8896 9.61635 13.8891 9.59576 13.8977 9.57852L16.7841 3.91512C16.7935 3.89685 16.8121 3.88527 16.8321 3.88501H16.8332C16.8532 3.88501 16.8715 3.89607 16.8812 3.91358L20.0336 9.63694C20.0432 9.65444 20.043 9.67554 20.0331 9.69278C20.0229 9.70977 20.0051 9.72006 19.9856 9.72006ZM14.0367 9.54944L19.8913 9.60735L16.8349 4.05898L14.0367 9.54944Z" stroke="#C6A664" stroke-width="0.5"/>
<path d="M13.9468 9.6601C13.9308 9.6601 13.9156 9.65315 13.9052 9.6408L9.40905 4.37165C9.39533 4.35544 9.39178 4.33279 9.39991 4.31323C9.40829 4.29367 9.42684 4.28055 9.44792 4.27926L16.8304 3.88501C16.8454 3.8863 16.8688 3.89376 16.8795 3.91049C16.8902 3.92747 16.8912 3.94857 16.8823 3.96659L13.9959 9.62999C13.9875 9.64646 13.9715 9.65753 13.9535 9.65958C13.9512 9.65984 13.9489 9.6601 13.9468 9.6601ZM9.56606 4.38478L13.9352 9.50518L16.7403 4.00184L9.56606 4.38478Z" stroke="#C6A664" stroke-width="0.5"/>
<path d="M7.42612 10.3911C7.4096 10.3911 7.3936 10.3834 7.38318 10.3703C7.37124 10.3554 7.36794 10.3353 7.37404 10.3173L9.39865 4.317C9.405 4.29795 9.42076 4.28406 9.44032 4.2802C9.45861 4.27608 9.47944 4.28328 9.4924 4.29847L13.9885 9.56762C14.002 9.58332 14.0056 9.60519 13.9982 9.62449C13.9908 9.64379 13.9733 9.65743 13.953 9.65975L7.43222 10.3909C7.43018 10.3911 7.42815 10.3911 7.42612 10.3911ZM9.47182 4.44515L7.5064 10.2702L13.8366 9.56041L9.47182 4.44515Z" stroke="#C6A664" stroke-width="0.5"/>
</svg>
